# xmcd
#
# Track frame offsets:
#	150
#	14820
#	45137
#	71474
#	93563
#	113517
#	132404
#	151214
#	177601
#	194537
#	217451
#	239235
#	259337
#	279999
#	297564
#
# Disc length: 4211 seconds
#
# Revision: 0
# Processed by: cddbd v1.5.1PL0 Copyright (c) Steve Scherf et al.
# Submitted via: audiograbber 1.83.01
#
DISCID=f110710f
DTITLE=Ultimate Moods To Chillout - CD 3
DYEAR=2003
DGENRE=Ambient
TTITLE0=Mary Mc Dowell - Only If
TTITLE1=Romana - Ancient Abbay
TTITLE2=Velasco - Orange Walk
TTITLE3=Sharon Tully - Thunder
TTITLE4=Rajiv Basham Singh - Mantra
TTITLE5=Bulek Moussa - Scent Of Water
TTITLE6=Bye Brook Barros - The Power Of Good
TTITLE7=Wild Horse - Manitoe´s Creation
TTITLE8=Mburu - Le Vent De Ghana
TTITLE9=Russel B. - Conquest Of Paradise
TTITLE10=Nancy Carr - Amazing Grace
TTITLE11=Michiko Tanaka - Onomatopoeia
TTITLE12=Kevin Toomey - Cuchulainn
TTITLE13=Claudia Ponte - Deliver Me
TTITLE14=Mario Barchetta - Diavolo E L´Angelo
EXTD=
EXTT0=
EXTT1=
EXTT2=
EXTT3=
EXTT4=
EXTT5=
EXTT6=
EXTT7=
EXTT8=
EXTT9=
EXTT10=
EXTT11=
EXTT12=
EXTT13=
EXTT14=
PLAYORDER=
